<?xml version="1.0" standalone="no"?>
<!DOCTYPE svg PUBLIC "-//W3C//DTD SVG 20010904//EN"
 "http://www.w3.org/TR/2001/REC-SVG-20010904/DTD/svg10.dtd">
<svg version="1.0" xmlns="http://www.w3.org/2000/svg"
 width="632.000000pt" height="395.000000pt" viewBox="0 0 632.000000 395.000000"
 preserveAspectRatio="xMidYMid meet">

<g transform="translate(0.000000,395.000000) scale(0.100000,-0.100000)"
fill="#000000" stroke="none">
<path d="M2945 3613 c-134 -12 -356 -71 -483 -129 -268 -120 -500 -310 -659
-539 -79 -115 -109 -168 -156 -280 -68 -161 -111 -323 -123 -458 -2 -34 -7
-86 -9 -114 l-5 -53 40 0 40 0 0 48 c0 26 7 91 15 144 13 90 24 135 69 302 43
156 193 393 350 554 98 100 143 137 281 229 59 39 248 132 290 141 22 6 82 21
132 35 51 14 136 31 189 38 115 14 370 6 459 -14 239 -56 360 -103 505 -196
41 -26 89 -57 106 -67 97 -59 294 -274 398 -434 114 -177 212 -496 217 -707
l2 -73 35 0 35 0 -6 108 c-8 141 -39 307 -76 409 -36 102 -147 316 -205 397
-69 97 -230 268 -286 304 -14 9 -45 33 -70 53 -52 42 -223 149 -237 149 -5 0
-53 18 -105 40 -225 94 -497 135 -743 113z"/>
<path d="M3000 3514 c-150 -12 -365 -60 -461 -101 -191 -82 -338 -182 -485
-328 -127 -126 -190 -212 -281 -385 -62 -116 -85 -180 -119 -335 -28 -128 -44
-325 -27 -325 6 0 13 42 16 93 17 242 66 407 184 620 120 216 331 432 527 539
208 114 314 153 486 179 239 36 530 17 716 -46 179 -62 385 -183 506 -297 147
-139 144 -135 256 -296 121 -173 211 -437 232 -678 9 -106 14 -124 27 -110 11
10 -14 231 -37 326 -25 105 -78 249 -131 355 -40 81 -191 295 -232 328 -12 10
-51 47 -87 81 -71 68 -143 126 -156 126 -5 0 -36 18 -69 41 -187 127 -435 201
-715 212 -58 3 -125 3 -150 1z"/>
<path d="M3220 3365 c-32 -56 -35 -81 -5 -52 18 19 42 12 68 -18 18 -20 18
-20 13 0 -15 61 -30 111 -36 118 -4 5 -22 -17 -40 -48z m36 -22 c-13 -14 -25
9 -13 28 12 20 12 20 15 -1 2 -12 1 -24 -2 -27z"/>
<path d="M3339 3356 c-16 -72 -9 -86 38 -85 l38 1 -33 9 -33 10 7 59 c4 33 4
60 1 60 -3 0 -11 -24 -18 -54z"/>
<path d="M3035 3392 c-9 -10 -5 -92 5 -92 6 0 10 18 10 40 0 33 3 40 20 40 11
0 20 -3 21 -7 8 -75 21 -96 17 -28 -3 49 -4 50 -35 51 -18 1 -35 -1 -38 -4z"/>
<path d="M2790 3375 c0 -8 -6 -15 -12 -15 -9 -1 -7 -5 3 -13 9 -7 20 -27 23
-45 4 -17 12 -32 17 -32 8 0 5 29 -7 68 -2 6 1 12 6 12 17 0 11 14 -10 28 -17
10 -20 10 -20 -3z"/>
<path d="M2922 3378 c-7 -7 -12 -24 -12 -38 0 -32 17 -50 47 -50 43 0 65 68
29 92 -17 12 -51 9 -64 -4z m58 -13 c18 -21 3 -55 -25 -55 -32 0 -45 38 -19
57 23 17 29 16 44 -2z"/>
<path d="M2861 3350 c0 -19 4 -44 9 -55 7 -16 9 -13 9 15 0 19 -4 44 -9 55 -7
16 -9 13 -9 -15z"/>
<path d="M3456 3343 c-3 -21 -8 -49 -11 -63 l-6 -25 12 23 c10 18 18 22 41 17
17 -4 28 -2 28 4 0 6 -9 11 -20 11 -22 0 -36 22 -26 39 4 6 18 6 36 1 40 -11
39 5 -1 19 -45 16 -46 15 -53 -26z"/>
<path d="M2706 3341 c-33 -7 -47 -36 -35 -70 8 -21 14 -23 50 -18 22 3 42 7
44 9 5 5 -18 88 -25 87 -3 -1 -18 -4 -34 -8z m24 -26 c19 -23 8 -50 -20 -50
-16 0 -26 6 -28 18 -4 18 14 47 28 47 4 0 13 -7 20 -15z"/>
<path d="M3562 3283 c-40 -42 -52 -72 -17 -43 19 16 65 -1 65 -25 0 -8 5 -15
10 -15 6 0 10 28 10 65 0 79 -9 81 -68 18z m48 -3 c0 -11 -7 -20 -15 -20 -18
0 -19 12 -3 28 16 16 18 15 18 -8z"/>
<path d="M2490 3300 c0 -5 5 -10 10 -10 6 0 10 5 10 10 0 6 -4 10 -10 10 -5 0
-10 -4 -10 -10z"/>
<path d="M2586 3294 c-9 -8 -16 -23 -16 -33 0 -21 30 -51 51 -51 17 0 39 19
39 34 0 6 -5 5 -12 -2 -18 -18 -46 -15 -57 6 -12 22 3 42 32 42 10 0 15 5 12
10 -9 15 -31 12 -49 -6z"/>
<path d="M2457 3283 c-13 -13 -7 -52 14 -87 26 -44 46 -48 24 -6 -9 17 -13 40
-10 50 4 14 2 20 -9 20 -10 0 -13 6 -10 15 6 16 2 20 -9 8z"/>
<path d="M2510 3266 c0 -13 48 -85 53 -80 8 9 -31 84 -43 84 -6 0 -10 -2 -10
-4z"/>
<path d="M2375 3250 c-3 -5 1 -10 10 -10 9 0 13 5 10 10 -3 6 -8 10 -10 10 -2
0 -7 -4 -10 -10z"/>
<path d="M3710 3199 c-25 -48 -19 -66 7 -20 31 53 77 36 48 -18 -17 -34 -18
-41 -7 -41 9 0 42 64 42 80 0 8 -51 40 -64 40 -3 0 -15 -18 -26 -41z"/>
<path d="M2407 3214 c-8 -8 33 -84 45 -84 12 0 11 4 -15 49 -13 23 -27 38 -30
35z"/>
<path d="M2327 3179 c-4 -15 -1 -23 12 -26 10 -2 26 -19 36 -36 10 -17 20 -26
22 -20 3 7 -3 23 -12 37 -10 14 -15 33 -11 41 3 8 1 15 -3 15 -5 0 -16 3 -24
6 -9 3 -16 -3 -20 -17z"/>
<path d="M3850 3190 c0 -5 6 -9 13 -7 6 1 12 -5 12 -13 0 -8 -7 -14 -15 -12
-12 3 -13 1 -2 -9 10 -11 15 -10 29 3 13 14 14 20 3 32 -14 18 -40 21 -40 6z"/>
<path d="M2280 3125 c-12 -23 -11 -28 10 -50 33 -35 45 -31 18 5 -17 23 -19
33 -10 42 14 14 16 28 4 28 -5 0 -15 -11 -22 -25z"/>
<path d="M3940 3121 c14 -4 26 -14 28 -23 3 -17 -7 -22 -73 -33 l-40 -7 34
-29 c19 -15 38 -26 43 -23 5 3 -2 14 -14 24 l-23 18 48 13 c43 10 48 14 45 38
-3 22 -8 26 -38 28 -29 2 -31 1 -10 -6z"/>
<path d="M2203 3073 c-16 -6 -17 -55 -1 -71 25 -25 78 -8 78 25 0 8 -7 6 -20
-7 -31 -31 -46 -13 -16 19 15 15 23 30 19 34 -7 8 -42 8 -60 0z m37 -12 c0
-13 -26 -32 -33 -24 -8 7 11 33 24 33 5 0 9 -4 9 -9z"/>
<path d="M4030 3072 c0 -6 5 -14 10 -17 22 -14 7 -34 -42 -55 -29 -12 -47 -24
-41 -27 15 -5 123 44 123 56 0 4 -11 18 -25 31 -14 13 -25 18 -25 12z"/>
<path d="M2096 3025 c-54 -54 -1 -142 69 -115 14 5 29 20 34 32 11 28 3 39
-10 16 -24 -44 -80 -43 -94 2 -8 24 11 60 30 60 8 0 15 5 15 10 0 15 -27 12
-44 -5z"/>
<path d="M4086 2991 c-3 -5 5 -12 19 -15 50 -13 14 -46 -49 -46 -20 0 -36 -2
-36 -5 0 -12 33 -55 42 -55 6 0 5 7 -2 15 -15 19 -15 19 34 31 54 12 69 39 37
65 -26 21 -37 24 -45 10z"/>
<path d="M3010 2975 c-36 -7 -82 -21 -103 -29 -64 -28 -171 -101 -202 -139
-30 -36 -31 -36 -71 -25 -44 12 -111 0 -147 -27 -31 -22 -52 -165 -27 -180 6
-3 10 -17 10 -29 0 -13 9 -35 20 -49 34 -44 27 -69 -32 -104 -29 -17 -72 -36
-95 -42 -22 -6 -52 -20 -65 -31 l-23 -19 113 -1 c61 0 112 -3 112 -7 0 -5 -27
-28 -60 -53 l-60 -44 28 -31 27 -30 -27 24 c-16 14 -31 22 -34 19 -9 -10 24
-65 48 -82 26 -19 42 -21 32 -4 -4 6 -3 8 4 4 10 -6 152 96 212 152 40 37 79
52 138 52 l55 0 -56 37 c-31 20 -55 39 -53 41 2 2 28 -9 58 -24 99 -50 237
-44 361 17 160 78 247 199 247 342 1 51 3 59 12 43 19 -33 13 -175 -10 -226
-35 -80 -145 -184 -232 -219 -17 -7 63 -10 264 -10 256 -1 287 1 276 14 -7 8
-36 22 -64 30 -28 9 -73 28 -101 43 -41 22 -51 32 -53 58 -2 19 3 36 12 44 9
7 16 18 16 24 0 6 9 28 20 49 16 30 19 48 14 93 -4 30 -15 66 -26 79 -18 24
-110 61 -126 51 -5 -3 -14 10 -20 29 -15 39 -83 105 -140 134 -22 11 -68 25
-103 31 -75 12 -66 12 -149 -5z m224 -39 c61 -30 120 -86 135 -126 9 -27 8
-31 -17 -44 -44 -23 -59 -48 -66 -108 -6 -46 -4 -64 11 -88 16 -28 16 -33 3
-57 -8 -14 -37 -41 -64 -60 l-49 -33 -31 18 c-40 23 -44 54 -12 101 14 20 26
44 26 53 0 8 8 26 18 39 11 13 22 35 25 48 6 25 -8 122 -23 158 -13 32 -119
83 -172 83 -48 0 -167 -51 -169 -72 -1 -7 -3 -29 -5 -48 -9 -75 -8 -138 3
-151 6 -8 16 -32 23 -54 7 -22 21 -50 30 -62 10 -13 15 -32 13 -45 -5 -23 -72
-78 -95 -78 -6 0 -35 18 -64 41 l-52 40 -7 82 c-5 64 -4 91 8 120 9 21 12 39
6 42 -5 4 -9 10 -9 15 0 19 82 109 117 128 84 45 150 74 188 82 68 15 172 4
229 -24z m-524 -525 c0 -9 -5 -9 -20 -1 -12 6 -20 21 -20 37 l0 26 20 -26 c11
-14 20 -30 20 -36z"/>
<path d="M2717 2639 c-9 -34 -8 -59 2 -59 13 0 23 49 13 67 -8 13 -10 11 -15
-8z"/>
<path d="M1999 2779 c-9 -6 -1 -9 25 -9 56 0 37 -12 -25 -16 -28 -1 -55 -6
-60 -11 -5 -5 19 -7 55 -5 36 2 81 -1 102 -8 54 -18 108 -52 95 -59 -7 -4 6
-23 31 -47 40 -37 37 -25 -6 24 -23 26 -11 30 16 5 10 -9 18 -12 18 -7 0 16
-73 67 -129 91 -36 14 -48 23 -33 23 25 0 96 -33 125 -58 9 -8 17 -10 17 -4 0
6 -16 20 -35 32 -19 12 -33 26 -30 30 3 5 -3 14 -14 19 -29 16 -38 13 -15 -4
21 -16 4 -21 -24 -6 -26 13 -98 20 -113 10z"/>
<path d="M1940 2717 c-38 -10 -45 -16 -45 -36 0 -15 -9 -28 -23 -34 -12 -6
-22 -14 -22 -18 0 -4 14 -1 31 8 16 8 33 13 36 10 3 -3 -13 -15 -36 -27 -23
-11 -41 -23 -41 -26 0 -2 9 0 19 6 13 7 20 7 23 -1 2 -7 18 -7 51 2 50 12 122
8 139 -9 6 -6 -16 -8 -59 -5 -49 4 -79 1 -107 -11 -47 -20 -52 -20 -36 -1 17
20 0 19 -26 -3 -23 -19 -38 -62 -22 -62 6 0 5 -7 -3 -16 -16 -20 -21 -44 -8
-44 6 0 5 -8 -1 -20 -20 -38 1 -42 39 -8 21 18 46 39 57 45 16 11 16 11 -8 3
-21 -7 -26 -6 -24 8 2 9 9 18 17 20 11 3 11 1 -1 -8 -11 -8 -6 -9 24 -4 28 5
37 4 32 -5 -4 -6 -1 -11 8 -11 10 0 13 6 10 15 -4 10 0 15 15 15 12 0 38 -7
58 -15 47 -20 53 -19 23 5 -14 11 -20 20 -14 20 7 0 22 -9 35 -20 13 -10 19
-19 13 -20 -15 0 -12 -49 6 -80 7 -14 19 -45 26 -70 7 -25 12 -36 13 -25 0 11
-8 43 -18 72 -10 31 -14 54 -8 56 6 2 5 11 -2 25 -8 14 -8 22 -1 22 5 0 10 -4
10 -8 0 -15 29 -48 30 -33 0 20 -80 89 -118 102 -41 14 -108 5 -148 -20 -29
-18 -42 -51 -21 -51 6 0 2 -9 -8 -20 -10 -11 -23 -20 -28 -20 -6 0 -2 9 8 20
18 20 18 21 -1 15 -19 -7 -19 -6 0 9 13 10 15 16 7 16 -11 0 -11 3 -1 15 10
12 10 15 -1 15 -10 0 -10 3 -2 11 6 6 9 18 6 25 -3 8 0 14 7 14 6 0 8 -4 5
-10 -3 -5 -2 -10 4 -10 5 0 13 5 16 10 3 6 12 10 18 10 7 0 -1 -12 -18 -26
-32 -27 -30 -27 30 0 62 28 141 19 194 -23 42 -33 81 -91 61 -91 -5 0 -10 -8
-10 -17 0 -15 -2 -14 -16 3 -15 19 -15 19 -9 -2 3 -12 12 -41 20 -65 l14 -44
-6 39 c-4 28 -2 37 6 32 6 -4 11 -17 11 -29 l0 -21 16 22 c14 20 14 27 -1 72
-9 27 -21 52 -26 55 -5 4 -9 11 -9 17 0 22 29 -14 41 -50 16 -52 26 -59 34
-23 8 38 -28 103 -86 156 -52 46 -76 55 -157 55 -47 0 -63 3 -52 10 25 16 112
11 155 -10 56 -26 78 -47 119 -110 37 -56 48 -61 21 -10 -9 17 -12 30 -7 30 5
0 14 -10 20 -22 7 -16 11 -18 11 -7 2 39 -91 135 -153 159 -16 6 -26 13 -24
16 3 3 24 -2 46 -11 39 -16 88 -61 124 -114 15 -21 18 -23 18 -8 0 10 -21 41
-47 69 -27 28 -47 54 -46 59 4 12 -44 35 -87 43 -19 3 -28 3 -20 0 8 -4 30
-13 49 -20 49 -20 32 -27 -20 -8 -31 11 -63 14 -108 10 -76 -7 -73 3 7 20 35
8 46 12 27 12 -16 0 -50 -5 -75 -11z m89 -40 c9 -8 37 -21 62 -30 42 -16 126
-87 103 -87 -6 0 -19 9 -30 21 -34 37 -109 69 -164 69 -32 0 -49 4 -45 10 3 6
-2 11 -12 11 -10 1 -4 5 12 9 46 12 57 11 74 -3z m59 -126 c39 -29 60 -51 47
-51 -3 0 -24 14 -45 32 -34 27 -48 31 -99 32 -33 0 -57 4 -55 8 3 5 29 8 58 8
43 0 61 -6 94 -29z m72 -28 c39 -45 60 -81 60 -104 0 -6 -4 -7 -10 -4 -5 3
-10 14 -10 24 0 9 -23 43 -51 74 -28 31 -46 57 -41 57 6 0 29 -21 52 -47z
m-141 -2 c9 -6 -6 -10 -45 -13 -68 -5 -77 -2 -43 11 31 12 70 13 88 2z m161
-139 c0 -15 -2 -15 -10 -2 -13 20 -13 33 0 25 6 -3 10 -14 10 -23z"/>
<path d="M3837 2724 c-13 -13 5 -24 39 -24 24 0 34 5 34 15 0 10 -10 15 -33
15 -19 0 -37 -3 -40 -6z"/>
<path d="M3965 2710 c-6 -18 -15 -20 -79 -20 -110 0 -107 5 -104 -190 l3 -165
65 -5 c39 -3 82 -14 107 -28 58 -31 143 -30 198 1 28 16 60 24 100 26 41 1 64
7 72 18 9 11 11 58 7 172 -3 85 -8 158 -10 161 -3 3 -41 7 -85 9 -65 2 -82 7
-92 22 -10 16 -24 19 -94 19 -73 0 -82 -2 -88 -20z m193 -73 c145 -95 85 -323
-87 -335 -123 -9 -212 83 -198 204 15 135 171 207 285 131z m138 12 c10 -17
-23 -46 -37 -32 -7 7 -9 19 -6 27 7 18 33 21 43 5z"/>
<path d="M4004 2650 c-78 -24 -137 -131 -115 -207 24 -82 106 -140 182 -130
85 11 159 92 159 172 0 108 -121 196 -226 165z m114 -44 c37 -19 57 -44 71
-88 11 -32 10 -43 -7 -81 -35 -78 -107 -109 -178 -78 -134 60 -96 259 49 261
21 0 50 -6 65 -14z"/>
<path d="M4035 2582 c-29 -6 -56 -32 -72 -70 -12 -29 -12 -37 2 -67 10 -20 31
-40 52 -50 31 -15 40 -15 72 -3 50 19 77 73 61 122 -16 48 -66 78 -115 68z
m89 -41 c3 -5 -1 -15 -10 -22 -13 -10 -17 -10 -24 1 -5 8 -6 18 -4 22 7 11 31
10 38 -1z"/>
<path d="M2000 2470 c0 -5 -16 -10 -35 -10 -45 0 -80 -18 -124 -63 -25 -27
-31 -39 -24 -52 9 -15 14 -13 39 18 16 20 42 40 57 46 36 14 87 14 87 1 0 -5
-20 -10 -44 -10 -47 0 -95 -30 -118 -74 l-11 -21 24 21 c13 12 29 20 36 17 6
-2 14 1 18 6 3 6 18 11 33 11 24 0 23 -2 -14 -19 -23 -11 -47 -27 -54 -38 -11
-17 -11 -17 -5 2 4 14 3 17 -5 9 -6 -6 -8 -18 -4 -27 4 -13 11 -14 32 -6 l26
10 -19 -22 -20 -22 30 19 30 18 -20 -24 c-16 -19 -16 -22 -2 -11 9 8 21 11 24
7 4 -4 1 -11 -6 -15 -10 -7 -10 -10 -1 -16 7 -4 16 -1 21 6 5 8 9 9 9 4 0 -6
11 -12 25 -13 22 -2 25 2 25 31 1 30 1 31 15 13 8 -11 15 -17 15 -13 0 12 -24
62 -38 80 -9 9 -10 17 -5 17 17 0 33 -24 47 -71 8 -24 14 -36 15 -26 1 10 -6
34 -14 54 -17 41 -12 59 6 20 7 -15 16 -24 22 -20 6 3 7 1 3 -6 -9 -14 2 -53
14 -46 4 3 7 13 5 23 -12 59 -16 72 -23 70 -4 -2 -20 10 -36 25 -20 18 -24 27
-14 27 9 0 23 -10 31 -22 9 -13 16 -18 16 -11 1 18 -59 63 -85 63 -13 0 -24 5
-24 10 0 15 27 12 64 -5 31 -15 68 -74 79 -130 3 -13 5 -11 6 9 1 34 -39 107
-72 132 -22 16 -22 16 8 9 19 -4 26 -3 20 3 -15 15 -65 24 -65 12z m-60 -30
c0 -5 -11 -12 -24 -16 -13 -3 -34 -17 -47 -30 -12 -13 -27 -24 -32 -24 -17 0
33 47 67 64 37 19 36 18 36 6z m71 -66 c12 -15 11 -16 -11 -8 -31 10 -57 10
-90 0 -24 -7 -24 -6 -6 8 26 21 90 21 107 0z m-13 -57 c24 -19 11 -26 -17 -9
-25 14 -35 15 -61 5 -27 -10 -30 -10 -20 2 20 24 68 25 98 2z m-20 -23 c12 -8
22 -25 21 -37 0 -22 0 -22 -10 1 -5 13 -18 26 -29 29 -11 3 -20 9 -20 14 0 13
13 11 38 -7z"/>
<path d="M3193 1970 c-61 -13 -114 -44 -148 -87 -27 -34 -30 -45 -30 -108 0
-60 4 -75 25 -102 36 -45 63 -58 185 -92 120 -34 160 -56 160 -91 0 -69 -141
-87 -268 -36 -38 15 -70 26 -71 24 -16 -17 -46 -93 -42 -104 3 -8 32 -27 63
-41 48 -22 77 -27 163 -31 59 -2 123 1 145 7 89 24 165 112 165 191 0 49 -35
114 -78 143 -22 16 -73 34 -128 46 -122 26 -162 44 -170 75 -21 85 86 120 224
74 l73 -25 25 48 c13 27 24 51 24 53 0 12 -80 45 -135 55 -66 12 -121 13 -182
1z"/>
<path d="M1599 1963 l-55 -4 -32 -65 c-18 -35 -32 -70 -32 -76 0 -11 -30 -78
-152 -338 -22 -47 -44 -96 -48 -110 -4 -14 -11 -33 -15 -42 -6 -16 1 -18 72
-18 l78 0 26 68 26 67 155 3 155 2 27 -70 28 -70 79 0 79 0 -10 24 c-5 14 -32
72 -59 131 -28 58 -51 112 -51 118 0 10 -165 366 -173 373 -8 6 -50 9 -98 7z
m79 -278 c18 -49 36 -98 39 -107 5 -16 -4 -18 -90 -18 -53 0 -98 4 -102 9 -3
6 14 54 38 108 24 54 47 107 51 118 l7 20 12 -20 c6 -11 26 -60 45 -110z"/>
<path d="M2065 1961 c-2 -2 -4 -149 -5 -327 l0 -324 74 0 75 0 3 88 3 87 115
5 c128 6 174 21 229 73 95 90 95 251 0 331 -70 59 -106 67 -307 69 -101 1
-185 0 -187 -2z m320 -121 c56 -13 85 -49 85 -106 0 -90 -36 -114 -170 -114
l-90 0 0 108 c0 60 3 112 7 115 9 10 121 8 168 -3z"/>
<path d="M2740 1639 l0 -329 75 0 75 0 -2 328 -3 327 -72 2 -73 2 0 -330z"/>
<path d="M3873 1963 c-8 -3 -13 -25 -13 -59 l0 -54 135 0 c85 0 135 -4 135
-10 0 -6 -17 -29 -38 -53 -69 -76 -83 -103 -80 -149 l3 -43 65 -5 c84 -6 120
-28 120 -73 0 -65 -59 -95 -164 -84 -29 3 -74 15 -100 28 -54 25 -54 25 -83
-50 -16 -42 -16 -44 3 -58 60 -44 247 -68 333 -43 128 36 195 173 141 285 -24
50 -64 81 -117 91 -18 3 -33 8 -33 11 0 6 54 73 103 128 31 36 37 49 37 89 l0
46 -204 0 c-112 0 -210 2 -218 4 -7 3 -19 2 -25 -1z"/>
<path d="M4543 1962 l-123 -3 0 -54 0 -55 130 0 c72 0 130 -4 130 -9 0 -10
-28 -48 -82 -110 -33 -38 -38 -51 -38 -92 l0 -49 60 0 c64 0 113 -18 124 -45
18 -48 -10 -98 -60 -111 -58 -15 -163 5 -236 44 -7 3 -58 -90 -58 -106 0 -15
73 -49 131 -62 81 -18 213 -9 265 18 98 50 140 172 93 269 -26 53 -58 79 -109
88 -22 4 -40 9 -40 12 0 2 22 30 48 61 78 91 92 116 92 161 0 23 -3 41 -7 41
-60 3 -224 4 -320 2z"/>
<path d="M1742 1220 c13 -23 46 -70 73 -105 28 -36 64 -83 80 -106 38 -52 199
-199 286 -261 98 -70 300 -172 419 -211 156 -52 302 -72 505 -71 298 1 525 57
745 184 36 20 86 49 113 64 39 23 145 109 246 201 90 83 251 300 251 339 0 3
-17 6 -37 6 -34 0 -41 -5 -67 -46 -135 -214 -405 -447 -628 -542 -252 -107
-388 -137 -633 -136 -197 0 -289 13 -446 64 -79 25 -123 44 -276 116 -140 67
-435 329 -502 447 -50 89 -59 97 -107 97 l-45 0 23 -40z"/>
<path d="M1868 1209 c38 -70 227 -272 320 -341 171 -128 204 -146 437 -233
125 -47 302 -77 465 -77 222 -1 399 38 629 136 154 65 372 227 484 360 59 69
147 189 147 200 0 17 -28 1 -46 -27 -62 -96 -92 -132 -186 -225 -143 -140
-313 -256 -456 -309 -250 -93 -392 -118 -617 -110 -179 7 -262 23 -445 85
-113 39 -291 131 -340 176 -14 13 -47 38 -74 56 -71 48 -247 235 -292 311 -39
66 -63 65 -26 -2z"/>
<path d="M2169 1068 l-40 -42 30 -30 c35 -34 56 -28 23 7 -29 31 -11 54 23 31
31 -20 43 -1 13 20 -17 12 -19 19 -11 27 9 9 18 8 37 -5 15 -9 26 -12 26 -7 0
8 -43 41 -55 41 -3 0 -23 -19 -46 -42z"/>
<path d="M3959 1072 c-34 -28 -19 -56 26 -49 37 6 47 -6 18 -22 -10 -5 -14
-13 -10 -17 13 -14 42 12 42 37 0 21 -4 24 -37 22 -41 -3 -51 13 -16 26 12 4
17 10 11 14 -6 4 -21 -1 -34 -11z"/>
<path d="M2252 984 c-13 -19 -21 -41 -19 -47 2 -7 13 3 23 20 11 18 25 33 32
33 23 0 24 -29 2 -60 -25 -35 -8 -41 21 -7 26 31 24 62 -6 81 -13 9 -26 16
-27 16 -2 0 -13 -16 -26 -36z"/>
<path d="M3872 1008 c-7 -7 -12 -24 -12 -38 0 -33 17 -50 50 -50 29 0 50 17
50 40 -1 13 -3 12 -14 -2 -7 -10 -24 -18 -37 -18 -23 1 -23 2 9 28 26 22 30
30 20 40 -15 15 -50 16 -66 0z m38 -23 c-7 -8 -19 -15 -27 -15 -13 0 -13 3 -3
15 7 8 19 15 27 15 13 0 13 -3 3 -15z"/>
<path d="M3792 948 c-20 -20 -14 -56 12 -73 25 -17 51 -12 60 11 6 16 -5 19
-20 4 -16 -16 -44 -1 -44 22 0 11 8 22 20 25 11 3 20 9 20 14 0 13 -34 11 -48
-3z"/>
<path d="M2352 934 c-31 -21 -29 -61 3 -76 26 -12 31 -23 15 -33 -13 -8 -13
-25 -1 -25 5 0 24 24 43 53 42 67 42 67 25 67 -8 0 -20 7 -27 15 -16 19 -30
19 -58 -1z m46 -13 c21 -13 10 -46 -16 -49 -27 -4 -40 22 -22 43 14 17 20 18
38 6z"/>
<path d="M3692 893 l-33 -14 22 -37 c31 -51 44 -63 34 -32 -13 45 -11 74 6 78
10 2 21 -8 29 -28 7 -16 16 -30 21 -30 22 0 -1 54 -29 68 -11 6 -29 4 -50 -5z"/>
<path d="M2456 871 c-26 -49 -19 -70 29 -85 17 -5 25 2 43 39 16 34 18 45 8
45 -7 0 -19 -13 -26 -30 -22 -54 -61 -30 -40 25 15 39 5 43 -14 6z"/>
<path d="M2607 883 c-3 -5 6 -14 19 -20 22 -10 25 -9 22 5 -3 18 -33 29 -41
15z"/>
<path d="M3603 854 c-28 -12 -33 -19 -33 -47 0 -53 41 -75 83 -43 16 12 16 19
5 60 -7 25 -15 46 -18 45 -3 0 -20 -7 -37 -15z m37 -29 c16 -19 3 -55 -20 -55
-25 0 -41 29 -29 52 12 22 32 23 49 3z"/>
<path d="M2574 839 c-46 -16 -31 -91 19 -97 15 -2 27 1 27 7 0 6 -8 11 -19 11
-10 0 -24 7 -31 15 -10 12 -10 15 3 15 9 0 27 -4 40 -9 20 -8 27 -6 31 5 14
36 -29 69 -70 53z m47 -25 c11 -14 10 -15 -11 -12 -13 1 -25 9 -28 16 -5 17
23 15 39 -4z"/>
<path d="M2681 823 c-7 -8 -15 -37 -17 -65 -3 -54 4 -56 22 -5 7 18 17 31 24
29 8 -2 9 5 5 20 -10 33 -18 38 -34 21z"/>
<path d="M3513 816 c-23 -11 -23 -16 -2 -73 14 -38 28 -26 16 13 -9 31 -9 38
6 49 33 24 20 31 -20 11z"/>
<path d="M3452 760 c2 -36 0 -45 -15 -48 -12 -3 -19 5 -23 27 -6 29 -20 48
-29 39 -8 -7 18 -77 30 -81 6 -3 24 -3 39 0 27 5 28 8 22 47 -10 60 -28 72
-24 16z"/>
<path d="M2736 768 c-9 -12 -16 -28 -16 -35 0 -21 31 -43 58 -42 21 1 23 2 7
6 -11 3 -26 10 -32 15 -21 17 -4 27 30 17 17 -5 33 -9 34 -9 2 0 3 10 3 23 0
48 -56 65 -84 25z m59 -9 c4 -6 5 -12 3 -14 -7 -7 -48 7 -48 16 0 13 37 11 45
-2z"/>
<path d="M2847 737 c-10 -46 3 -67 43 -67 20 0 29 6 34 23 9 34 7 67 -4 67 -5
0 -10 -9 -10 -19 0 -32 -11 -51 -30 -51 -15 0 -20 9 -22 43 l-3 42 -8 -38z"/>
<path d="M3296 754 c-8 -21 11 -44 35 -44 11 0 19 -4 19 -10 0 -5 -12 -10 -27
-10 -24 -1 -25 -2 -11 -11 12 -7 24 -6 38 1 26 14 22 43 -5 48 -33 6 -42 22
-12 22 15 0 27 5 27 10 0 17 -57 11 -64 -6z"/>
<path d="M3223 753 c-23 -9 -14 -43 15 -55 l27 -11 -30 -7 c-26 -6 -27 -8 -11
-15 41 -18 72 28 32 46 -31 15 -34 29 -5 29 11 0 17 5 14 10 -7 11 -22 12 -42
3z"/>
<path d="M2960 736 c0 -7 -3 -28 -6 -45 -9 -41 12 -41 21 0 4 19 15 33 26 36
30 8 22 23 -11 23 -19 0 -30 -5 -30 -14z"/>
<path d="M3092 738 c-35 -35 4 -92 56 -82 30 6 32 9 32 49 0 41 0 42 -38 43
-21 1 -44 -4 -50 -10z m63 -18 c9 -15 -4 -50 -19 -50 -20 0 -39 27 -32 45 6
17 42 20 51 5z"/>
</g>
</svg>
